<svg width="103.822052" height="34.830383" viewBox="0 0 103.822 34.8304" fill="none" xmlns="http://www.w3.org/2000/svg" xmlns:xlink="http://www.w3.org/1999/xlink">
	<desc>
		Arrow icon (inside preview text)
	</desc>
	<defs/>
	<path id="Vector 2" d="M3.26 4.37L0 5.36L0.68 7.62L3.95 6.63Q4.42 6.48 4.65 6.05Q4.88 5.62 4.73 5.15Q4.59 4.68 4.16 4.45Q3.73 4.22 3.26 4.37ZM14.13 1.05L10.87 2.05Q10.4 2.19 10.17 2.62Q9.94 3.05 10.08 3.52Q10.22 3.99 10.65 4.22Q11.09 4.45 11.56 4.31L14.82 3.31Q16.23 2.88 17.67 2.59Q18.36 2.45 19.05 2.35Q19.54 2.27 19.82 1.88Q20.11 1.48 20.04 1Q19.96 0.51 19.57 0.22Q19.17 -0.07 18.69 0.01Q17.91 0.13 17.14 0.29Q15.62 0.6 14.13 1.05ZM34.09 1.33Q31.88 0.59 29.56 0.16Q29.08 0.08 28.68 0.35Q28.28 0.63 28.19 1.11Q28.1 1.6 28.38 2Q28.65 2.4 29.14 2.49Q31.29 2.88 33.34 3.57Q35.39 4.26 37.34 5.25Q37.78 5.47 38.24 5.31Q38.71 5.16 38.93 4.72Q39.15 4.29 38.99 3.82Q38.84 3.35 38.4 3.13Q36.3 2.07 34.09 1.33ZM48.23 10.74Q47.7 10.14 47.14 9.56Q46.8 9.21 46.31 9.2Q45.82 9.19 45.47 9.53Q45.12 9.87 45.11 10.36Q45.11 10.85 45.45 11.21Q45.95 11.72 46.43 12.26Q47.4 13.37 48.27 14.57Q49.37 16.1 50.63 17.48Q51.78 18.73 53.05 19.87Q53.42 20.19 53.91 20.16Q54.39 20.13 54.72 19.77Q55.05 19.4 55.02 18.91Q54.99 18.42 54.62 18.1Q53.45 17.05 52.39 15.89Q51.21 14.61 50.19 13.19Q49.27 11.91 48.23 10.74ZM71.31 25.57Q69.75 25.39 68.21 25.05Q67.73 24.94 67.32 25.2Q66.91 25.47 66.8 25.94Q66.69 26.42 66.96 26.84Q67.22 27.25 67.7 27.35Q69.36 27.72 71.05 27.92Q72.9 28.13 74.79 28.13L81.22 28.13Q81.71 28.13 82.05 27.79Q82.4 27.44 82.4 26.95Q82.4 26.46 82.05 26.11Q81.71 25.77 81.22 25.77L74.79 25.77Q73.04 25.77 71.31 25.57ZM99.78 28.13L96.2 28.13Q95.71 28.13 95.36 27.79Q95.02 27.44 95.02 26.95Q95.02 26.46 95.36 26.11Q95.71 25.77 96.2 25.77L99.78 25.77L95.1 21.1C94.64 20.63 94.64 19.89 95.1 19.42C95.57 18.96 96.31 18.96 96.78 19.42L103.46 26.11L103.47 26.11Q103.67 26.32 103.75 26.57L103.75 26.57C103.9 26.98 103.8 27.45 103.47 27.79L96.78 34.47C96.31 34.94 95.57 34.94 95.1 34.47C94.64 34.01 94.64 33.27 95.1 32.8L99.78 28.13Z" fill="#A3A3A3" fill-opacity="1.000000" fill-rule="evenodd"/>
</svg>
