<svg viewBox="0 0 103.822 83.228" xmlns="http://www.w3.org/2000/svg" xmlns:xlink="http://www.w3.org/1999/xlink" width="103.822021" height="83.228027" fill="none" customFrame="#000000">
	<path id="Vector 4" d="M0.0794405 -1.17976L3.48404 -0.950513C4.27055 -0.897552 4.63733 -0.477817 4.58437 0.308693C4.53141 1.0952 4.11167 1.46198 3.32516 1.40902L-0.0794405 1.17976L0.0794405 -1.17976ZM11.4181 -0.416262L14.8227 -0.18701C16.3853 -0.0817968 17.9298 0.133524 19.4563 0.458952C20.2273 0.623307 20.5306 1.09097 20.3662 1.86194C20.2019 2.6329 19.7342 2.93621 18.9633 2.77185C17.547 2.46993 16.1139 2.27016 14.6639 2.17252L11.2593 1.94327C10.4728 1.89031 10.106 1.47057 10.1589 0.684062C10.2119 -0.102448 10.6316 -0.469223 11.4181 -0.416262ZM29.565 4.46628C32.2511 6.09325 34.6537 8.06557 36.7727 10.3832C37.3046 10.965 37.2797 11.5219 36.6979 12.0538C36.1162 12.5857 35.5593 12.5608 35.0274 11.979C33.0612 9.82858 30.8321 7.99858 28.3398 6.48903C27.6656 6.08063 27.5326 5.53931 27.941 4.86506C28.3494 4.19081 28.8908 4.05788 29.565 4.46628ZM42.6624 19.4941C43.2877 20.9451 43.8059 22.4361 44.217 23.9672C44.7927 26.1114 45.5934 28.1665 46.6189 30.1325C46.9835 30.8314 46.8163 31.3632 46.1174 31.7278C45.4185 32.0923 44.8868 31.9252 44.5222 31.2263C43.4167 29.107 42.5536 26.8917 41.933 24.5805C41.5515 23.1597 41.0707 21.7762 40.4906 20.43C40.1786 19.706 40.3846 19.1881 41.1085 18.8761C41.8325 18.5641 42.3504 18.7701 42.6624 19.4941ZM56.8529 41.4542C58.7056 42.6724 60.6697 43.6759 62.745 44.4645L68.7551 46.7485C69.492 47.0285 69.7204 47.5369 69.4404 48.2738C69.1604 49.0107 68.6519 49.2391 67.9151 48.9591L61.905 46.6752C59.668 45.8251 57.5508 44.7434 55.5536 43.4302C54.8949 42.9971 54.7822 42.4512 55.2152 41.7925C55.6483 41.1339 56.1942 41.0211 56.8529 41.4542ZM82.7611 52.0709L88.7712 54.3549C89.5081 54.6349 89.7365 55.1434 89.4565 55.8802C89.1765 56.6171 88.668 56.8455 87.9311 56.5655L81.921 54.2816C81.1842 54.0016 80.9557 53.4931 81.2357 52.7562C81.5158 52.0194 82.0242 51.7909 82.7611 52.0709ZM86.788 54.8662L83.3961 47.3161C83.1247 46.7121 83.3861 46.0243 83.9901 45.7529C84.5941 45.4816 85.2819 45.7429 85.5532 46.3469L89.4297 54.9756C89.7011 55.5796 89.4397 56.2674 88.8357 56.5388L80.207 60.4153C79.603 60.6867 78.9152 60.4253 78.6439 59.8213C78.3725 59.2173 78.6339 58.5295 79.2379 58.2581L86.788 54.8662Z" fill="rgb(162.572,162.572,162.572)" fill-rule="nonzero" transform="matrix(0.934779,-0.35523,0.35523,0.934779,0.344818,31.385)" />
</svg>
