<svg width="158.950317" height="32.525269" viewBox="0 0 158.95 32.5253" fill="none" xmlns="http://www.w3.org/2000/svg" xmlns:xlink="http://www.w3.org/1999/xlink">
	<desc>
			Created with Pixso.
	</desc>
	<defs>
		<linearGradient x1="137.767273" y1="-3.003670" x2="22.922897" y2="33.996338" id="paint_linear_9_7_0" gradientUnits="userSpaceOnUse">
			<stop stop-color="#FF6432"/>
			<stop offset="1.000000" stop-color="#FFA228"/>
		</linearGradient>
	</defs>
	<path id="pizzashop" d="M26.53 5.58C27.16 5.04 27.48 4.23 27.48 3.16C27.48 2.12 27.16 1.33 26.53 0.81C25.91 0.27 25.13 1.9e-5 24.18 1.9e-5C23.25 1.9e-5 22.46 0.27 21.83 0.81C21.19 1.33 20.87 2.12 20.87 3.16Q20.87 4.54 21.55 5.33Q21.66 5.47 21.79 5.58C22.43 6.1 23.22 6.36 24.18 6.36Q25.37 6.36 26.21 5.82Q26.38 5.71 26.53 5.58ZM105.8 1.19L100.01 1.19L100.01 25.03L105.8 25.03L105.8 14.54C106.55 13.58 107.48 13.11 108.59 13.11C109.34 13.11 109.94 13.32 110.39 13.75C110.85 14.19 111.08 14.82 111.08 15.66L111.08 25.03L116.87 25.03L116.87 14.88C116.87 12.93 116.31 11.32 115.2 10.08C114.08 8.8 112.46 8.17 110.33 8.17C108.6 8.17 107.09 8.75 105.8 9.91L105.8 1.19ZM7.18 8.95C6.25 9.47 5.56 10.12 5.1 10.89L5.1 8.68L1.13e-5 8.68L1.13e-5 32.52L5.78 32.52L5.78 23.7Q6.14 24.07 6.55 24.36Q8.18 25.54 10.66 25.54Q12.63 25.54 14.2 24.79C15.24 24.29 16.07 23.62 16.68 22.78C17.3 21.94 17.76 21.02 18.08 20.02C18.4 19 18.56 17.94 18.56 16.85Q18.56 15.37 18.17 14Q18.12 13.86 18.08 13.72C17.76 12.7 17.3 11.77 16.68 10.93Q16.62 10.84 16.55 10.75Q15.65 9.61 14.2 8.92Q12.63 8.17 10.66 8.17Q8.61 8.17 7.18 8.95ZM80.71 21.38C79.96 21.38 79.58 21.04 79.58 20.36L79.58 15.8C79.58 13.03 78.86 11.06 77.4 9.91Q75.22 8.17 71.03 8.17C69.01 8.17 66.89 8.53 64.66 9.26L64.66 14.13C66.75 13.29 68.66 12.87 70.39 12.87C71.5 12.87 72.34 13.06 72.91 13.45C73.5 13.81 73.79 14.3 73.79 14.91L73.79 15.49C72.66 15.24 71.48 15.12 70.25 15.12C69.39 15.12 68.56 15.21 67.76 15.39C66.99 15.57 66.24 15.85 65.52 16.24C64.81 16.63 64.24 17.19 63.81 17.94Q63.8 17.96 63.79 17.98Q63.17 19.06 63.17 20.5C63.17 22.04 63.71 23.27 64.8 24.18C65.89 25.08 67.24 25.54 68.85 25.54C70.97 25.54 72.86 24.88 74.54 23.56C75.31 24.77 76.61 25.37 78.42 25.37C79.51 25.37 80.49 25.2 81.35 24.86L81.35 21.28C81.15 21.35 80.93 21.38 80.71 21.38ZM84.87 9.39C83.53 10.21 82.86 11.54 82.86 13.38C82.86 14.47 83.16 15.39 83.75 16.14C84.34 16.89 85.06 17.44 85.9 17.81C86.74 18.15 87.58 18.43 88.42 18.66C89.26 18.89 89.97 19.14 90.56 19.41Q91.32 19.73 91.43 20.2Q91.45 20.28 91.45 20.36C91.45 20.91 90.73 21.18 89.3 21.18C86.87 21.18 84.78 20.6 83.03 19.44L83.03 24.04C84.78 25.04 86.97 25.54 89.61 25.54Q94.96 25.54 96.64 23.06Q97.41 21.92 97.41 20.26C97.41 19.12 97.11 18.18 96.52 17.43C95.93 16.68 95.22 16.15 94.38 15.83C93.54 15.49 92.7 15.21 91.86 14.98C91.02 14.75 90.3 14.52 89.71 14.27C89.12 13.99 88.82 13.65 88.82 13.24C88.82 12.7 89.35 12.43 90.39 12.43Q91.82 12.43 93.42 12.94C94.51 13.25 95.42 13.66 96.15 14.16L96.15 9.57C94.17 8.63 92.12 8.17 89.98 8.17C87.92 8.17 86.21 8.58 84.87 9.39ZM119.35 16.85C119.35 19.62 120.22 21.77 121.97 23.29C123.74 24.79 125.93 25.54 128.54 25.54C131.15 25.54 133.33 24.79 135.08 23.29C136.85 21.77 137.74 19.62 137.74 16.85C137.74 14.08 136.85 11.95 135.08 10.45C133.33 8.93 131.15 8.17 128.54 8.17C125.93 8.17 123.74 8.93 121.97 10.45C120.22 11.95 119.35 14.08 119.35 16.85ZM147.57 8.95C146.64 9.47 145.95 10.12 145.49 10.89L145.49 8.68L140.38 8.68L140.38 32.52L146.17 32.52L146.17 23.7C147.35 24.93 148.98 25.54 151.04 25.54C152.36 25.54 153.54 25.29 154.59 24.79C155.63 24.29 156.46 23.62 157.07 22.78C157.69 21.94 158.15 21.02 158.47 20.02Q158.61 19.57 158.71 19.1Q158.95 18 158.95 16.85Q158.95 15.37 158.55 14Q158.51 13.86 158.47 13.72C158.15 12.7 157.69 11.77 157.07 10.93C156.46 10.09 155.63 9.42 154.59 8.92C153.54 8.42 152.36 8.17 151.04 8.17C149.68 8.17 148.52 8.43 147.57 8.95ZM21.28 25.03L27.07 25.03L27.07 8.68L21.28 8.68L21.28 25.03ZM44.11 8.68L30.32 8.68L30.32 13.45L36.49 13.45L29.84 21.62L29.84 25.03L44.59 25.03L44.59 20.26L37.51 20.26L44.11 12.09L44.11 8.68ZM60.88 8.68L47.08 8.68L47.08 13.45L53.25 13.45L46.61 21.62L46.61 25.03L61.35 25.03L61.35 20.26L54.27 20.26L60.88 12.09L60.88 8.68ZM12.17 18.83Q11.97 19.24 11.68 19.61C11.09 20.38 10.22 20.77 9.09 20.77Q8.32 20.77 7.66 20.5Q7.36 20.37 7.08 20.19Q6.22 19.6 5.81 18.78Q5.8 18.75 5.78 18.73L5.78 14.98Q5.84 14.88 5.89 14.78Q6.3 14.06 7.08 13.55C7.67 13.14 8.34 12.94 9.09 12.94Q10.27 12.94 11.06 13.49Q11.4 13.74 11.68 14.1Q11.97 14.47 12.17 14.88Q12.6 15.76 12.6 16.85Q12.6 17.94 12.17 18.83ZM152.56 18.83Q152.36 19.24 152.07 19.61C151.48 20.38 150.61 20.77 149.48 20.77C148.73 20.77 148.06 20.58 147.47 20.19C146.88 19.78 146.45 19.29 146.17 18.73L146.17 14.98C146.45 14.41 146.88 13.94 147.47 13.55C148.06 13.14 148.73 12.94 149.48 12.94C150.61 12.94 151.48 13.32 152.07 14.1Q152.36 14.47 152.56 14.88Q152.99 15.76 152.99 16.85Q152.99 17.94 152.56 18.83ZM131.78 16.85C131.78 17.88 131.52 18.73 130.99 19.41C130.47 20.09 129.65 20.43 128.54 20.43C127.43 20.43 126.61 20.09 126.09 19.41C125.57 18.73 125.31 17.88 125.31 16.85C125.31 15.83 125.57 14.98 126.09 14.3C126.61 13.62 127.43 13.28 128.54 13.28C129.65 13.28 130.47 13.62 130.99 14.3C131.52 14.98 131.78 15.83 131.78 16.85ZM69.67 21.18C69.31 20.86 69.13 20.48 69.13 20.02C69.13 18.84 69.99 18.25 71.71 18.25C72.49 18.25 73.18 18.35 73.79 18.56L73.79 20.77C73.02 21.34 72.12 21.62 71.1 21.62C70.51 21.62 70.03 21.47 69.67 21.18Z" fill="url(#paint_linear_9_7_0)" fill-opacity="1.000000" fill-rule="evenodd"/>
</svg>
